Coordinates
version=1
nRows=24
nColumns=19
inDegrees=yes

Units are S.I. units (second, meters, Newtons, ...)
If the header above contains a line with 'inDegrees', this indicates whether rotational values are in degrees (yes) or radians (no).

endheader
time	pelvis_tilt	pelvis_list	pelvis_rotation	pelvis_tx	pelvis_ty	pelvis_tz	hip_flexion_r	hip_adduction_r	hip_rotation_r	knee_angle_r	knee_angle_r_beta	ankle_angle_r	hip_flexion_l	hip_adduction_l	hip_rotation_l	knee_angle_l	knee_angle_l_beta	ankle_angle_l
     14.89333333	     -4.57907529	     -5.45292182	     -5.46520738	      2.20197358	      1.06189836	      1.03601256	     24.16843132	      9.54514443	     -6.65347624	     14.14541041	      0.24688399	     -0.68724649	    -13.84037947	    -13.09988144	    -22.51971441	     44.55247720	      0.77758742	    -13.47174537
     14.90000000	     -4.00226181	     -5.83063815	     -5.73473326	      2.20196169	      1.05750721	      1.03693821	     24.28170784	      9.88511715	     -7.20377297	     16.85627632	      0.29419752	      0.21698142	    -13.95041960	    -13.81640373	    -22.19611554	     47.06202708	      0.82138733	    -12.50644885
     14.90666667	     -3.50112130	     -6.14982693	     -6.02401650	      2.20177743	      1.05271438	      1.03773065	     24.55608223	     10.12036591	     -7.73472292	     19.89835266	      0.34729177	      1.34279569	    -13.84706025	    -14.39780579	    -21.65895123	     49.65695789	      0.86667741	    -11.63938696
     14.91333333	     -3.00200823	     -6.41310211	     -6.34079626	      2.20136818	      1.04768157	      1.03837704	     24.87090833	     10.24059384	     -8.29348359	     23.14801377	      0.40400906	      2.66557126	    -13.61103249	    -14.88013883	    -21.04598791	     52.34808815	      0.91364650	    -10.87807608
     14.92000000	     -2.50708690	     -6.65724988	     -6.64326234	      2.20083972	      1.04251016	      1.03888428	     25.15012007	     10.32206382	     -8.68440406	     26.43491649	      0.46137633	      4.23736651	    -13.25175478	    -15.26551012	    -20.26388685	     55.07049575	      0.96116147	    -10.17506405
     14.92666667	     -1.97540970	     -6.85483676	     -6.94296843	      2.20010190	      1.03737988	      1.03913964	     25.32929978	     10.31815590	     -8.99227390	     29.66737009	      0.51779329	      5.86860160	    -12.80612982	    -15.53176558	    -19.40564924	     57.81104132	      1.00899301	     -9.55934822
     14.93333333	     -1.29780868	     -7.28787935	     -7.30437311	      2.19935594	      1.03248384	      1.03936124	     25.15693637	     10.58391461	     -9.12395629	     32.63389442	      0.56956891	      7.67635591	    -12.54470140	    -15.98887982	    -18.71280358	     60.50336704	      1.05598296	     -8.95268972
     14.94000000	     -1.36813488	     -7.26560168	     -7.58404173	      2.19822093	      1.02688730	      1.03939911	     25.83591511	     10.42079631	     -9.12878401	     35.61303372	      0.62156470	      9.52422844	    -11.08975605	    -15.97173848	    -17.48218154	     63.35762962	      1.10579924	     -8.35354356
     14.94666667	     -1.26618872	     -7.48897117	     -7.89381930	      2.19706371	      1.02179532	      1.03936500	     26.08676833	     10.54802807	     -8.99157537	     38.18885986	      0.66652134	     11.39643430	     -9.85212746	    -16.18581383	    -16.46141837	     66.11992473	      1.15401039	     -7.74316586
     14.95333333	     -1.26824687	     -7.73239345	     -8.15207740	      2.19579397	      1.01699733	      1.03921684	     26.27696129	     10.71347584	     -8.80260139	     40.43794971	      0.70577537	     13.22790513	     -8.39800754	    -16.41300697	    -15.38086687	     68.82223691	      1.20117463	     -7.13851379
     14.96000000	     -1.43679225	     -7.98331990	     -8.35534506	      2.19444092	      1.01246494	      1.03899719	     26.46850570	     10.90909911	     -8.60077077	     42.35441144	      0.73922393	     14.99567695	     -6.65313341	    -16.64702372	    -14.21178158	     71.45825555	      1.24718184	     -6.48396833
     14.96666667	     -1.71730462	     -8.26523862	     -8.46381433	      2.19300789	      1.00835443	      1.03864781	     26.59514024	     11.12717126	     -8.45123274	     43.91333682	      0.76643231	     16.63263672	     -4.67794659	    -16.92787752	    -12.96505168	     73.99582510	      1.29147078	     -5.84734932
     14.97333333	     -2.10200062	     -8.53153222	     -8.47811402	      2.19152117	      1.00471793	      1.03818766	     26.66119738	     11.31347993	     -8.36288123	     45.13904717	      0.78782499	     18.13414435	     -2.48556252	    -17.18520056	    -11.62918462	     76.39300144	      1.33330940	     -5.21205400
     14.98000000	     -2.53412467	     -8.77941308	     -8.39211436	      2.19002032	      1.00164442	      1.03762783	     26.60898124	     11.45528230	     -8.34218045	     46.04107386	      0.80356833	     19.49227010	     -0.15308164	    -17.39751548	    -10.21658333	     78.60964599	      1.37199715	     -4.59804237
     14.98666667	     -3.13425820	     -8.90882645	     -8.18807337	      2.18847234	      0.99904269	      1.03697814	     26.60165030	     11.45270466	     -8.40317565	     46.65879178	      0.81434954	     20.69168091	      2.48534626	    -17.46702092	     -8.69955333	     80.64638212	      1.40754490	     -4.01846080
     14.99333333	     -3.56543187	     -9.00810408	     -7.94179738	      2.18697436	      0.99730025	      1.03627509	     26.25237195	     11.39767707	     -8.46101053	     46.98895270	      0.82011194	     21.72893721	      4.93335853	    -17.44048088	     -7.27981358	     82.39624326	      1.43808574	     -3.45654497
     15.00000000	     -3.60144643	     -9.13458445	     -7.59217046	      2.18554913	      0.99675798	      1.03553667	     25.30011432	     11.32522723	     -8.52891542	     46.99046054	      0.82013825	     22.65191372	      6.91413420	    -17.37704264	     -5.96820947	     83.81102502	      1.46277834	     -2.90592709
     15.00666667	     -4.18402987	     -9.04583277	     -7.09544777	      2.18408882	      0.99616136	      1.03464343	     24.88902721	     10.99717356	     -8.81693022	     46.84193761	      0.81754604	     23.31258834	      9.64470430	    -17.06379252	     -4.47478907	     85.07638350	      1.48486301	     -2.43291944
     15.01333333	     -4.20511920	     -8.97446263	     -6.57082235	      2.18285013	      0.99696597	      1.03375356	     23.69249052	     10.68364829	     -9.00582857	     46.38155773	      0.80951089	     23.89234341	     11.61030416	    -16.69617915	     -3.26318390	     85.92654672	      1.49970116	     -1.93408331
     15.02000000	     -4.20159514	     -8.78951312	     -6.06816929	      2.18167055	      0.99836822	      1.03296243	     22.38686017	     10.29530263	     -9.12658720	     45.75398983	      0.79855777	     24.34436166	     13.47339222	    -16.20396702	     -2.25636839	     86.48373974	      1.50942601	     -1.42490373
     15.02666667	     -4.16544323	     -8.46902806	     -5.86114316	      2.18061959	      1.00045403	      1.03259286	     20.95362944	      9.95273164	     -8.79664773	     44.97192082	      0.78490809	     24.61685134	     15.07069998	    -15.67331581	     -1.79827019	     86.68516932	      1.51294162	     -0.91848719
     15.03333333	     -4.00187291	     -8.18952547	     -5.14754013	      2.17971211	      1.00312599	      1.03158508	     19.30167233	      9.41643515	     -9.12560890	     43.97011464	      0.76742327	     24.75967606	     16.64953516	    -15.00656924	     -0.92783069	     86.67097918	      1.51269395	     -0.37597502
     15.04000000	     -4.12222804	     -7.74487253	     -5.03695953	      2.17903093	      1.00599693	      1.03140572	     17.89749192	      8.99511553	     -8.75957405	     42.91113657	      0.74894062	     24.67406974	     18.18632760	    -14.46968521	     -0.94116657	     86.31098113	      1.50641080	      0.13862130
     15.04666667	     -3.47239209	     -7.43796368	     -4.37875238	      2.17847145	      1.01022166	      1.03050420	     15.53131564	      8.54207611	     -8.83449880	     41.51626933	      0.72459559	     24.43549234	     18.92461569	    -13.79316940	     -0.52793412	     85.66896281	      1.49520547	      0.74264022
